<svg xmlns="http://www.w3.org/2000/svg" xmlns:xlink="http://www.w3.org/1999/xlink" viewBox="0 0 135 40"><defs><style>.cls-1,.cls-10,.cls-11,.cls-12,.cls-13{fill:#fff;}.cls-2{fill:#a6a6a6;}.cls-3{fill:url(#linear-gradient);}.cls-4{fill:url(#linear-gradient-2);}.cls-5{fill:url(#linear-gradient-3);}.cls-6{opacity:0.2;}.cls-6,.cls-8{isolation:isolate;}.cls-7{fill:none;}.cls-8{opacity:0.12;}.cls-9{fill:url(#linear-gradient-4);}.cls-10{opacity:0.5;}.cls-11{opacity:0.3;}.cls-12{opacity:0.25;}.cls-13{opacity:0.4;}</style><linearGradient id="linear-gradient" x1="23.57" y1="160.96" x2="0.81" y2="138.2" gradientTransform="matrix(1, 0, 0, -1, 0, 182)" gradientUnits="userSpaceOnUse"><stop offset="0" stop-color="#ff3a44"/><stop offset="1" stop-color="#c31162"/></linearGradient><linearGradient id="linear-gradient-2" x1="23.01" y1="161.52" x2="0.25" y2="138.76" xlink:href="#linear-gradient"/><linearGradient id="linear-gradient-3" x1="23.31" y1="161.22" x2="0.55" y2="138.46" xlink:href="#linear-gradient"/><linearGradient id="linear-gradient-4" x1="15.89" y1="179.2" x2="-0.89" y2="162.42" gradientTransform="matrix(1, 0, 0, -1, 0, 182)" gradientUnits="userSpaceOnUse"><stop offset="0" stop-color="#00a0ff"/><stop offset="0.01" stop-color="#00a1ff"/><stop offset="0.26" stop-color="#00beff"/><stop offset="0.51" stop-color="#00d2ff"/><stop offset="0.76" stop-color="#00dfff"/><stop offset="1" stop-color="#00e3ff"/></linearGradient></defs><title>Fichier 1</title><g id="Calque_2" data-name="Calque 2"><g id="artwork"><path class="cls-1" d="M68.14,23.43A2.58,2.58,0,1,0,70.54,26,2.45,2.45,0,0,0,68.14,23.43Z"/><path class="cls-1" d="M77.42,23.43a2.59,2.59,0,0,0,0,5.16A2.38,2.38,0,0,0,79.7,26,2.4,2.4,0,0,0,77.42,23.43Z"/><path class="cls-1" d="M101.85,19.24H99.2v4.29h2.65a2.14,2.14,0,1,0,0-4.29Z"/><path class="cls-1" d="M58.82,23.43A2.58,2.58,0,1,0,61.22,26,2.45,2.45,0,0,0,58.82,23.43Z"/><path class="cls-1" d="M71.41,12.4A2.2,2.2,0,0,0,73,11.72,2.35,2.35,0,0,0,73.71,10,2.35,2.35,0,0,0,73,8.28a2.31,2.31,0,0,0-3.26,0A2.35,2.35,0,0,0,69.11,10a2.35,2.35,0,0,0,.67,1.72A2.2,2.2,0,0,0,71.41,12.4Z"/><path class="cls-1" d="M89.48,23.4a2.33,2.33,0,0,0-2.22,2.48l3.8-1.58A1.65,1.65,0,0,0,89.48,23.4Z"/><path class="cls-1" d="M111.7,27.52c0,.76.85,1.06,1.46,1.06a2.26,2.26,0,0,0,2.22-2,3.32,3.32,0,0,0-1.7-.42C112.76,26.18,111.7,26.55,111.7,27.52Z"/><path class="cls-1" d="M130,0H5A5,5,0,0,0,0,5H0A5,5,0,0,1,5,0H130a5,5,0,0,1,5,5h0A5,5,0,0,0,130,0Z"/><path class="cls-2" d="M130,40H5a5,5,0,0,1-5-5H0a5,5,0,0,0,5,5H130a5,5,0,0,0,5-5h0A5,5,0,0,1,130,40Z"/><path class="cls-1" d="M11.91,32.78l-.19,0Z"/><path class="cls-3" d="M11.91,32.78l-.19,0Z"/><path class="cls-1" d="M10.87,32.76a1.22,1.22,0,0,1-.18-.11A1.22,1.22,0,0,0,10.87,32.76Z"/><path class="cls-4" d="M10.87,32.76a1.22,1.22,0,0,1-.18-.11A1.22,1.22,0,0,0,10.87,32.76Z"/><path class="cls-1" d="M11.35,32.86a1.36,1.36,0,0,1-.2,0A1.36,1.36,0,0,0,11.35,32.86Z"/><path class="cls-5" d="M11.35,32.86a1.36,1.36,0,0,1-.2,0A1.36,1.36,0,0,0,11.35,32.86Z"/><path class="cls-1" d="M11.15,32.82a1.35,1.35,0,0,1-.28-.06A1.33,1.33,0,0,0,11.15,32.82Z"/><path class="cls-6" d="M11.15,32.82a1.35,1.35,0,0,1-.28-.06A1.33,1.33,0,0,0,11.15,32.82Z"/><path class="cls-1" d="M11.72,32.81a1.84,1.84,0,0,1-.37,0A1.84,1.84,0,0,0,11.72,32.81Z"/><path class="cls-6" d="M11.72,32.81a1.84,1.84,0,0,1-.37,0A1.84,1.84,0,0,0,11.72,32.81Z"/><path class="cls-1" d="M12.51,32.53a2.75,2.75,0,0,1-.61.26A2.74,2.74,0,0,0,12.51,32.53Z"/><path class="cls-6" d="M12.51,32.53a2.75,2.75,0,0,1-.61.26A2.74,2.74,0,0,0,12.51,32.53Z"/><path class="cls-7" d="M10.6,32.45l-.09-.06h0l-.07-.07a2,2,0,0,1-.46-1.4v.15h0a2,2,0,0,0,.46,1.4l.07.07h0a1.22,1.22,0,0,0,.18.11l-.17-.12Z"/><path class="cls-7" d="M71.41,13.13a2.94,2.94,0,0,0,2.2-.91A3.07,3.07,0,0,0,74.49,10a3.07,3.07,0,0,0-.89-2.22,3.1,3.1,0,0,0-4.4,0A3.07,3.07,0,0,0,68.33,10a3.07,3.07,0,0,0,.88,2.22A2.94,2.94,0,0,0,71.41,13.13Z"/><polygon class="cls-7" points="76.35 9.26 76.31 8.11 76.35 8.11 79.4 13 80.2 13 80.2 7 79.43 7 79.43 10.51 79.46 11.67 79.43 11.67 76.51 7 75.58 7 75.58 13 76.35 13 76.35 9.26"/><path class="cls-7" d="M47.74,23.06v1.8h4.32a3.77,3.77,0,0,1-1,2.27,4.42,4.42,0,0,1-3.33,1.32,4.8,4.8,0,0,1,0-9.6A4.6,4.6,0,0,1,51,20.14l1.27-1.27A6.29,6.29,0,0,0,47.74,17a6.61,6.61,0,1,0,0,13.21,6,6,0,0,0,4.61-1.85,6,6,0,0,0,1.56-4.22,5.87,5.87,0,0,0-.1-1.13Z"/><polygon class="cls-7" points="55.28 13 55.28 7.74 56.95 7.74 56.95 7 52.83 7 52.83 7.74 54.51 7.74 54.51 13 55.28 13"/><polygon class="cls-7" points="52.03 12.26 49.3 12.26 49.3 10.36 51.76 10.36 51.76 9.64 49.3 9.64 49.3 7.74 52.03 7.74 52.03 7 48.52 7 48.52 13 52.03 13 52.03 12.26"/><path class="cls-7" d="M44.47,13.13a2.91,2.91,0,0,0,2.2-.89,2.71,2.71,0,0,0,.75-2,2.55,2.55,0,0,0,0-.45H44.47v.72h2.18a1.89,1.89,0,0,1-.5,1.22,2.35,2.35,0,0,1-4-1.73,2.32,2.32,0,0,1,2.33-2.4,2,2,0,0,1,1.64.71l.53-.53a2.47,2.47,0,0,0-.94-.67,3.1,3.1,0,0,0-1.23-.25A3.09,3.09,0,0,0,41.35,10a3.09,3.09,0,0,0,3.12,3.13Z"/><path class="cls-7" d="M10,8.94h0a2.82,2.82,0,0,1,0-.5A2.8,2.8,0,0,0,10,8.94Z"/><rect class="cls-7" x="59.94" y="7" width="0.77" height="6"/><path class="cls-7" d="M58.82,21.75A4.25,4.25,0,1,0,63.09,26,4.19,4.19,0,0,0,58.82,21.75Z"/><rect class="cls-7" x="106.94" y="17.5" width="1.87" height="12.5"/><path class="cls-7" d="M101.81,17.5H97.33V30H99.2V25.26h2.61a3.89,3.89,0,1,0,0-7.77Z"/><path class="cls-7" d="M93.05,24.46a4,4,0,0,0-3.64-2.71,4,4,0,0,0-4,4.25,4.16,4.16,0,0,0,4.22,4.25,4.23,4.23,0,0,0,3.54-1.88l-1.45-1a2.43,2.43,0,0,1-2.09,1.18,2.16,2.16,0,0,1-2.06-1.29l5.69-2.35Z"/><polygon class="cls-7" points="121.6 27.42 121.54 27.42 119.32 22 117.31 22 120.64 29.58 118.74 33.79 120.69 33.79 125.82 22 123.74 22 121.6 27.42"/><polygon class="cls-7" points="64.13 13 64.13 7.74 65.8 7.74 65.8 7 61.68 7 61.68 7.74 63.36 7.74 63.36 13 64.13 13"/><path class="cls-7" d="M113.39,21.73a3.5,3.5,0,0,0-3.33,1.91l1.66.69a1.77,1.77,0,0,1,1.7-.92,1.8,1.8,0,0,1,2,1.61v.13a4.13,4.13,0,0,0-1.95-.48c-1.79,0-3.6,1-3.6,2.81a2.89,2.89,0,0,0,3.1,2.75A2.63,2.63,0,0,0,115.32,29h.06v1h1.8V25.19C117.18,23,115.52,21.73,113.39,21.73Z"/><rect class="cls-7" x="82.63" y="17.5" width="1.87" height="12.5"/><path class="cls-7" d="M68.14,21.75A4.25,4.25,0,1,0,72.41,26,4.19,4.19,0,0,0,68.14,21.75Z"/><path class="cls-7" d="M79.57,22.7H79.5a3,3,0,0,0-2.24-1,4.26,4.26,0,0,0,0,8.51,2.9,2.9,0,0,0,2.24-1h.06v.61c0,1.63-.87,2.5-2.27,2.5a2.35,2.35,0,0,1-2.14-1.51l-1.63.68a4.05,4.05,0,0,0,3.77,2.51c2.19,0,4-1.29,4-4.43V22H79.57Z"/><path class="cls-1" d="M130,.8H5A4.2,4.2,0,0,0,.8,5V35A4.2,4.2,0,0,0,5,39.2H130a4.2,4.2,0,0,0,4.2-4.2V5A4.2,4.2,0,0,0,130,.8ZM75.58,7h.94l2.92,4.67h0l0-1.16V7h.77v6h-.8L76.35,8.11h0l0,1.16V13h-.77Zm-6.37.78a3.1,3.1,0,0,1,4.4,0A3.07,3.07,0,0,1,74.49,10a3.07,3.07,0,0,1-.88,2.22,3.12,3.12,0,0,1-4.4,0A3.07,3.07,0,0,1,68.33,10,3.07,3.07,0,0,1,69.21,7.78ZM59.94,7h.77v6h-.77ZM48.52,7H52v.74H49.3v1.9h2.46v.72H49.3v1.9H52V13h-3.5Zm-6.26.77a3,3,0,0,1,2.21-.9,3.1,3.1,0,0,1,1.23.25,2.47,2.47,0,0,1,.94.67l-.53.53a2,2,0,0,0-1.64-.71A2.32,2.32,0,0,0,42.14,10a2.36,2.36,0,0,0,4,1.73,1.89,1.89,0,0,0,.5-1.22H44.47V9.79h2.91a2.55,2.55,0,0,1,0,.45,2.71,2.71,0,0,1-.75,2,2.91,2.91,0,0,1-2.2.89A3.09,3.09,0,0,1,41.35,10,3,3,0,0,1,42.26,7.77ZM33.06,20a1.27,1.27,0,0,1-.16.58,2.16,2.16,0,0,1-.89.87l-4.89,2.78-.09.05h0L12.51,32.53a2.74,2.74,0,0,1-.61.26l-.19,0a1.84,1.84,0,0,1-.37,0,1.36,1.36,0,0,1-.2,0,1.33,1.33,0,0,1-.28-.06,1.22,1.22,0,0,1-.18-.11,1.22,1.22,0,0,1-.18-.11h0l-.07-.07a2,2,0,0,1-.46-1.4h0V8.94h0a2.8,2.8,0,0,1,0-.5s0-.09,0-.14A2,2,0,0,1,10.15,8l.06-.13a1.49,1.49,0,0,1,.16-.24l.06-.08v0l.07-.07h0a1.23,1.23,0,0,1,.27-.19l.14-.05a1.33,1.33,0,0,1,.31-.07h.17a1.82,1.82,0,0,1,.36,0l.18,0a2.74,2.74,0,0,1,.55.23h0l14.61,8.3h0L32,18.56a1.75,1.75,0,0,1,1,1.44h0Zm19.29,8.4a6,6,0,0,1-4.61,1.85,6.61,6.61,0,1,1,0-13.21,6.29,6.29,0,0,1,4.53,1.82L51,20.14a4.6,4.6,0,0,0-3.25-1.29,4.8,4.8,0,0,0,0,9.6,4.42,4.42,0,0,0,3.33-1.32,3.77,3.77,0,0,0,1-2.27H47.74v-1.8h6.07a5.87,5.87,0,0,1,.1,1.13A6,6,0,0,1,52.35,28.41Zm.48-20.67V7H57v.74H55.28V13h-.77V7.74Zm6,22.52A4.25,4.25,0,1,1,63.09,26,4.2,4.2,0,0,1,58.82,30.26ZM61.68,7.74V7H65.8v.74H64.13V13h-.77V7.74Zm6.45,22.52A4.25,4.25,0,1,1,72.41,26,4.2,4.2,0,0,1,68.14,30.26Zm13.2-.61c0,3.14-1.85,4.43-4,4.43a4.05,4.05,0,0,1-3.77-2.51l1.63-.68A2.35,2.35,0,0,0,77.3,32.4c1.4,0,2.27-.87,2.27-2.5v-.61H79.5a2.9,2.9,0,0,1-2.24,1,4.26,4.26,0,0,1,0-8.51,3,3,0,0,1,2.24,1h.06V22h1.77ZM84.5,30H82.63V17.5H84.5Zm5.12-1.42a2.43,2.43,0,0,0,2.09-1.18l1.45,1a4.23,4.23,0,0,1-3.54,1.88A4.16,4.16,0,0,1,85.4,26a4,4,0,0,1,4-4.25,4,4,0,0,1,3.64,2.71l.19.48-5.69,2.35A2.16,2.16,0,0,0,89.62,28.58Zm12.19-3.32H99.2V30H97.33V17.5h4.47a3.89,3.89,0,1,1,0,7.77Zm7,4.74h-1.87V17.5h1.87Zm8.38,0h-1.8V29h-.06a2.63,2.63,0,0,1-2.38,1.22,2.89,2.89,0,0,1-3.1-2.75c0-1.83,1.82-2.81,3.6-2.81a4.13,4.13,0,0,1,1.95.48V25a1.8,1.8,0,0,0-2-1.61,1.77,1.77,0,0,0-1.7.92l-1.66-.69a3.5,3.5,0,0,1,3.33-1.91c2.14,0,3.8,1.24,3.8,3.46Zm3.51,3.81h-1.95l1.9-4.21L117.31,22h2l2.22,5.42h.06L123.74,22h2.07Z"/><path class="cls-1" d="M130,0H5A5,5,0,0,0,0,5V35a5,5,0,0,0,5,5H130a5,5,0,0,0,5-5V5A5,5,0,0,0,130,0Zm4.2,35a4.2,4.2,0,0,1-4.2,4.2H5A4.2,4.2,0,0,1,.8,35V5A4.2,4.2,0,0,1,5,.8H130A4.2,4.2,0,0,1,134.2,5Z"/><path class="cls-1" d="M33.06,20h0a1.27,1.27,0,0,1-.16.58A1.27,1.27,0,0,0,33.06,20Z"/><path class="cls-8" d="M33.06,20h0a1.27,1.27,0,0,1-.16.58A1.27,1.27,0,0,0,33.06,20Z"/><path class="cls-1" d="M10,8.94h0a2.82,2.82,0,0,1,0-.5A2.8,2.8,0,0,0,10,8.94Z"/><path class="cls-9" d="M10,8.94h0a2.82,2.82,0,0,1,0-.5A2.8,2.8,0,0,0,10,8.94Z"/><path class="cls-10" d="M10.44,7.54h0l-.06.08a1.49,1.49,0,0,0-.16.24L10.15,8a2,2,0,0,0-.09.29s0,.09,0,.14a2.82,2.82,0,0,0,0,.5v22a2,2,0,0,0,.46,1.4l.07.07L22.9,20Z"/><path class="cls-11" d="M26.93,24.19l-4-4V20L10.51,32.39h0l.09.06-.08.08.17.12a1.22,1.22,0,0,0,.18.11,1.33,1.33,0,0,0,.28.06,1.36,1.36,0,0,0,.2,0,1.84,1.84,0,0,0,.37,0l.19,0a2.74,2.74,0,0,0,.61-.26L27,24.28Z"/><path class="cls-12" d="M32,18.56l-4.89-2.78h0l-.09.09L22.9,20v.15l4,4,.09.09h0l.09-.05L32,21.45a2.16,2.16,0,0,0,.89-.87,1.27,1.27,0,0,0,.16-.58h0A1.75,1.75,0,0,0,32,18.56Z"/><path class="cls-13" d="M12.51,7.48h0a2.75,2.75,0,0,0-.55-.23l-.18,0a1.83,1.83,0,0,0-.36,0h-.17a1.33,1.33,0,0,0-.31.07l-.14.05a1.23,1.23,0,0,0-.27.19l-.08.06s0,0,0,0h0L22.9,20,27,15.87l.09-.09h0Z"/></g></g></svg>