<?xml version="1.0" encoding="utf-8"?>
<!-- Generator: Adobe Illustrator 21.0.0, SVG Export Plug-In . SVG Version: 6.00 Build 0)  -->
<svg version="1.1" id="livetype" xmlns="http://www.w3.org/2000/svg" xmlns:xlink="http://www.w3.org/1999/xlink" x="0px" y="0px"
	 viewBox="0 0 126.5 40" style="enable-background:new 0 0 126.5 40;" xml:space="preserve">
<style type="text/css">
	.st0{fill:#FFFFFF;}
</style>
<title>Download_on_the_App_Store_Badge_FR_RGB_wht_100217</title>
<g>
	<path class="st0" d="M94.5,13.1C94.5,13.1,94.5,13.1,94.5,13.1l0-0.4l-1.1,0.1c-0.6,0-0.9,0.3-0.9,0.6c0,0.4,0.4,0.6,0.8,0.6
		C93.9,14.1,94.4,13.7,94.5,13.1z"/>
	<polygon class="st0" points="46.7,20.1 44.9,25.6 48.6,25.6 46.8,20.1 	"/>
	<path class="st0" d="M89.5,12.5c0-0.9-0.5-1.5-1.2-1.5c-0.7,0-1.2,0.6-1.2,1.5h0c0,1,0.5,1.5,1.2,1.5C89,14,89.5,13.4,89.5,12.5z"
		/>
	<path class="st0" d="M40.9,10.9c0,0-0.1,0-0.1,0c-0.6,0-1.2,0.5-1.2,1.1c0,0,0,0,0,0h2.3C41.9,11.4,41.5,10.9,40.9,10.9z"/>
	<path class="st0" d="M64.3,13v-0.4l-1.1,0.1c-0.6,0-0.9,0.3-0.9,0.6c0,0.4,0.4,0.6,0.8,0.6C63.7,14.1,64.2,13.7,64.3,13
		C64.3,13.1,64.3,13.1,64.3,13z"/>
	<path class="st0" d="M57.7,22.9c-1.4,0-2.4,1.2-2.4,3c0,1.8,1,3,2.4,3c1.4,0,2.4-1.2,2.4-3C60.1,24.1,59.1,22.9,57.7,22.9z"/>
	<path class="st0" d="M71.9,10.9c-0.8,0-1.2,0.6-1.2,1.5c0,0.9,0.4,1.5,1.2,1.5c0.8,0,1.2-0.6,1.2-1.5
		C73.1,11.5,72.6,10.9,71.9,10.9z"/>
	<path class="st0" d="M77.3,10.9c0,0-0.1,0-0.1,0c-0.6,0-1.2,0.5-1.2,1.1c0,0,0,0,0,0h2.3C78.4,11.4,77.9,10.9,77.3,10.9z"/>
	<path class="st0" d="M48.3,10.9c0,0-0.1,0-0.1,0c-0.6,0-1.2,0.5-1.2,1.1c0,0,0,0,0,0h2.3C49.4,11.4,48.9,10.9,48.3,10.9z"/>
	<path class="st0" d="M112.4,22.8c-0.1,0-0.1,0-0.2,0c-1.3,0-2.3,1-2.3,2.3c0,0,0,0,0,0h4.5C114.5,23.9,113.6,22.9,112.4,22.8z"/>
	<path class="st0" d="M125.6,7.6c0-0.6-0.1-1.3-0.2-1.9c-0.1-0.6-0.3-1.1-0.5-1.6c-0.5-1-1.4-1.9-2.4-2.4c-0.5-0.3-1.1-0.4-1.7-0.5
		c-0.6-0.1-1.2-0.2-1.9-0.2l-0.9,0H8.4l-0.9,0c-0.6,0-1.3,0.1-1.9,0.2C5.1,1.1,4.5,1.3,4,1.6c-0.5,0.3-1,0.6-1.4,1
		C2.2,3,1.9,3.5,1.6,4C1.3,4.5,1.1,5.1,1.1,5.7C1,6.3,0.9,6.9,0.9,7.5c0,0.2,0,0.9,0,0.9v23.1c0,0,0,0.7,0,0.9
		c0,0.6,0.1,1.3,0.2,1.9c0.1,0.6,0.3,1.1,0.5,1.7c0.3,0.5,0.6,1,1,1.4c0.4,0.4,0.9,0.8,1.4,1c0.5,0.3,1.1,0.4,1.7,0.5
		c0.6,0.1,1.2,0.2,1.9,0.2c0.3,0,0.6,0,0.9,0l108.5,0l1.1,0c0.3,0,0.6,0,0.9,0c0.6,0,1.3-0.1,1.9-0.2c0.6-0.1,1.1-0.3,1.7-0.5
		c0.5-0.3,1-0.6,1.4-1c0.4-0.4,0.8-0.9,1-1.4c0.3-0.5,0.4-1.1,0.5-1.7c0.1-0.6,0.2-1.2,0.2-1.9c0-0.3,0-0.6,0-0.9c0-0.4,0-0.7,0-1.1
		V9.5c0-0.4,0-0.7,0-1.1C125.6,8.1,125.6,7.8,125.6,7.6z M96.7,10.2h0.9v0.7h0.1c0.2-0.5,0.8-0.8,1.3-0.8c0.8-0.1,1.5,0.5,1.6,1.4
		c0,0.1,0,0.2,0,0.3v2.9h-0.9V12c0-0.7-0.3-1.1-1-1.1c-0.6,0-1.1,0.4-1.1,1c0,0.1,0,0.1,0,0.2v2.6h-0.9V10.2z M81.3,10.2v0.7h0.1
		c0.2-0.5,0.7-0.8,1.2-0.8c0.1,0,0.3,0,0.4,0V11c-0.2,0-0.3-0.1-0.5-0.1c-0.6-0.1-1.1,0.4-1.1,1c0,0,0,0.1,0,0.1v2.7h-0.9l0-4.5
		H81.3z M66.6,10.2h0.9v0.7h0.1c0.2-0.5,0.7-0.8,1.2-0.8c0.1,0,0.3,0,0.4,0V11c-0.2,0-0.3-0.1-0.5-0.1c-0.6-0.1-1.1,0.4-1.1,1
		c0,0,0,0.1,0,0.1v2.7h-0.9V10.2z M56.4,8.4h0.9v2.5h0.1c0.2-0.5,0.8-0.9,1.4-0.8c0.8,0,1.5,0.6,1.6,1.4c0,0.1,0,0.2,0,0.3v2.9h-0.9
		V12c0-0.7-0.3-1.1-1-1.1c-0.6,0-1.1,0.4-1.1,1c0,0.1,0,0.1,0,0.2v2.6h-0.9L56.4,8.4z M48.7,8h1l-1.2,1.4h-0.9L48.7,8z M47.9,10.1
		c0.1,0,0.2,0,0.3,0c1.3,0,2,0.9,2,2.3v0.3H47v0C47,13.4,47.5,14,48.1,14c0,0,0.1,0,0.1,0c0.4,0.1,0.9-0.2,1.1-0.5l0.9,0
		c-0.2,0.8-1.1,1.4-2,1.3c-1.1,0-2.1-0.9-2.1-2c0-0.1,0-0.2,0-0.3C46,11.3,46.8,10.3,47.9,10.1z M44,8.4h0.9v6.3H44V8.4z M41.3,8h1
		l-1.2,1.4h-0.9L41.3,8z M20,9.6c0.9-1,2-1.6,3.3-1.7c0.1,1.3-0.3,2.6-1.2,3.6c-0.8,1-2.1,1.6-3.4,1.6C18.7,11.8,19.1,10.5,20,9.6z
		 M26.5,27.7c-0.9,1.4-1.9,2.8-3.5,2.8c-1.5,0-2-0.9-3.7-0.9c-1.7,0-2.3,0.9-3.7,0.9c-1.5,0.1-2.6-1.5-3.6-2.9
		c-1.9-2.8-3.4-7.9-1.4-11.4c0.9-1.7,2.7-2.8,4.7-2.8c1.5,0,2.8,1,3.8,1c0.9,0,2.6-1.2,4.3-1c1.7,0.1,3.2,0.9,4.2,2.2
		c-1.5,0.9-2.4,2.6-2.5,4.3c0,2,1.2,3.8,3,4.6C27.7,25.6,27.1,26.7,26.5,27.7z M37.1,30.5h-1.9V18.1h1.9V30.5z M38.4,9.6h-1.9v5.1
		h-0.9V9.6h-1.9V8.7h4.7V9.6z M40.5,10.1c0.1,0,0.2,0,0.3,0c1.3,0,2,0.9,2,2.3v0.3h-3.2v0C39.5,13.4,40,14,40.7,14c0,0,0.1,0,0.1,0
		c0.4,0.1,0.9-0.2,1.1-0.5l0.9,0c-0.2,0.8-1.1,1.4-2,1.3c-1.1,0-2.1-0.9-2.1-2c0-0.1,0-0.2,0-0.3C38.5,11.3,39.3,10.3,40.5,10.1z
		 M39.3,22.6l1-4.5h1.8l-1.2,4.5H39.3z M50.3,30.5l-1.1-3.4h-4.7l-1.1,3.4h-2l4.5-12.4h2.1l4.5,12.4H50.3z M51.2,12.8
		c0-0.1,0-0.2,0-0.4c-0.2-1.1,0.6-2.2,1.8-2.3c0.1,0,0.2,0,0.3,0c1-0.1,1.8,0.6,1.9,1.6h-0.9c-0.1-0.5-0.6-0.8-1.1-0.8
		c-0.7,0-1.2,0.6-1.2,1.5c0,1,0.5,1.6,1.2,1.6c0.5,0.1,0.9-0.3,1.1-0.7h0.9c-0.1,0.9-1,1.6-1.9,1.5C52.2,14.8,51.2,13.9,51.2,12.8z
		 M58.2,30.6C57,30.7,55.9,30,55.4,29h0v4.5h-1.9v-12h1.8v1.5h0c0.6-1,1.7-1.6,2.9-1.6c2.3,0,3.8,1.8,3.8,4.6
		C62,28.8,60.5,30.6,58.2,30.6z M61.4,13.6c0,0,0-0.1,0-0.1c0-0.8,0.6-1.3,1.7-1.3l1.2-0.1v-0.4c0-0.5-0.3-0.7-0.9-0.7
		c-0.5,0-0.8,0.2-0.9,0.5h-0.9c0.1-0.8,0.8-1.3,1.8-1.3c1.1,0,1.8,0.6,1.8,1.5v3.1h-0.9v-0.6h-0.1c-0.3,0.5-0.8,0.7-1.4,0.7
		C62.2,14.9,61.5,14.3,61.4,13.6z M68.2,30.6C67,30.7,65.9,30,65.3,29h0v4.5h-1.9v-12h1.8v1.5h0c0.6-1,1.7-1.6,2.9-1.6
		c2.3,0,3.8,1.8,3.8,4.6C72,28.8,70.5,30.6,68.2,30.6z M74,14.7c0,1-0.8,1.7-2.1,1.7c-1.1,0-1.9-0.5-1.9-1.3h0.9
		c0.1,0.3,0.5,0.5,1.1,0.5c0.7,0,1.2-0.4,1.2-0.9v-0.9H73c-0.3,0.5-0.8,0.8-1.4,0.8c-1.1,0-1.9-0.9-1.9-2.2c0-1.4,0.7-2.3,1.9-2.3
		c0.6,0,1.1,0.3,1.4,0.8h0.1v-0.7H74V14.7z M75.1,12.8c0-0.1,0-0.2,0-0.3c-0.2-1.1,0.6-2.2,1.8-2.3c0.1,0,0.2,0,0.3,0
		c1.3,0,2,0.9,2,2.3v0.3h-3.2v0C76,13.4,76.5,14,77.1,14c0,0,0.1,0,0.1,0c0.4,0.1,0.9-0.2,1.1-0.5l0.9,0c-0.2,0.8-1.1,1.4-2,1.3
		C76.1,14.8,75.2,13.9,75.1,12.8z M81.4,30.7c-2.8,0-4.6-1.4-4.7-3.7l1.9,0c0.1,1.2,1.3,2,3,2c1.6,0,2.7-0.8,2.7-1.9
		c0-1-0.7-1.5-2.3-1.9l-1.6-0.4C78,24.3,77,23.2,77,21.5c0-2.1,1.9-3.6,4.5-3.6c2.6,0,4.4,1.5,4.5,3.6h-1.9c-0.1-1.2-1.1-2-2.6-2
		s-2.5,0.8-2.5,1.9c0,0.9,0.7,1.4,2.3,1.8l1.4,0.3c2.5,0.6,3.6,1.6,3.6,3.4C86.2,29.2,84.3,30.7,81.4,30.7z M86.2,12.4
		c0-1.4,0.7-2.3,1.9-2.3c0.6,0,1.1,0.3,1.4,0.8h0.1V8.4h0.9v6.3h-0.9V14h-0.1c-0.3,0.5-0.8,0.8-1.4,0.8
		C86.9,14.8,86.2,13.9,86.2,12.4z M91.9,22.9h-1.7v5c0,0.8,0.3,1.1,1.1,1.1c0.2,0,0.4,0,0.6,0v1.5c-0.3,0.1-0.7,0.1-1,0.1
		c-1.8,0-2.5-0.7-2.5-2.4v-5.2H87v-1.5h1.3v-2.1h1.9v2.1h1.7V22.9z M91.6,13.6c0,0,0-0.1,0-0.1c0-0.8,0.6-1.3,1.7-1.3l1.2-0.1v-0.4
		c0-0.5-0.3-0.7-0.9-0.7c-0.5,0-0.8,0.2-0.9,0.5h-0.9c0.1-0.8,0.8-1.3,1.8-1.3c1.1,0,1.8,0.6,1.8,1.5v3.1h-0.9v-0.6h-0.1
		c-0.3,0.5-0.8,0.7-1.4,0.7C92.3,14.9,91.7,14.3,91.6,13.6z M97.2,30.6c-2.6,0-4.3-1.8-4.3-4.6c0-2.8,1.7-4.6,4.3-4.6
		c2.6,0,4.3,1.8,4.3,4.6C101.5,28.8,99.8,30.6,97.2,30.6z M101.7,13.5h0.9c0.2,0.4,0.6,0.6,1,0.6c0.6,0,0.9-0.2,0.9-0.6
		c0-0.3-0.2-0.4-0.7-0.5l-0.8-0.2c-0.9-0.2-1.3-0.6-1.3-1.3c0-0.8,0.7-1.4,1.7-1.4c1,0,1.7,0.5,1.8,1.3h-0.9
		c-0.1-0.3-0.4-0.5-0.9-0.5c-0.5,0-0.9,0.2-0.9,0.6c0,0.3,0.2,0.4,0.7,0.6l0.7,0.2c0.9,0.2,1.3,0.6,1.3,1.2c0,0.8-0.8,1.4-1.9,1.4
		C102.5,14.8,101.8,14.3,101.7,13.5z M107.7,23.2c-0.3-0.1-0.6-0.1-0.8-0.1c-1,0-1.9,0.8-1.9,1.8c0,0.1,0,0.2,0,0.3v5.4H103v-9.1
		h1.8V23h0c0.2-1,1.2-1.7,2.2-1.6c0.2,0,0.4,0,0.6,0.1V23.2z M116.3,26.4h-6.4v0.1c-0.1,1.3,0.8,2.4,2.1,2.6c0.1,0,0.2,0,0.3,0
		c0.9,0.1,1.8-0.4,2.1-1.3h1.8c-0.2,1.6-1.9,2.8-3.9,2.8c-2.6,0-4.3-1.8-4.3-4.6c0-2.8,1.6-4.7,4.2-4.7c2.5,0,4.1,1.7,4.1,4.5V26.4z
		"/>
	<path class="st0" d="M67.7,22.9c-1.4,0-2.4,1.2-2.4,3c0,1.8,1,3,2.4,3c1.4,0,2.4-1.2,2.4-3C70.1,24.1,69.1,22.9,67.7,22.9z"/>
	<path class="st0" d="M97.2,22.9c-1.5,0-2.4,1.2-2.4,3.1c0,2,0.9,3.1,2.4,3.1s2.4-1.1,2.4-3.1C99.6,24,98.7,22.9,97.2,22.9z"/>
</g>
</svg>
