<svg xmlns="http://www.w3.org/2000/svg" viewBox="0 0 635.9 199.8"><defs><style>.cls-1{fill:#fff;}</style></defs><title>Fichier 26</title><g id="Calque_2" data-name="Calque 2"><g id="Calque_1-2" data-name="Calque 1"><path class="cls-1" d="M571.13,49.46a31.59,31.59,0,0,0-6.94-4.74c-6.51-5.8-15.32-8.88-25.54-7.8a43.73,43.73,0,0,0-25.92,12.61c.1-1.2.17-2.4.17-3.62a36.19,36.19,0,0,0-11.82-27.33,35.3,35.3,0,0,0-7.34-5.08A36.11,36.11,0,0,0,466,5.14l-32,3.36a6.43,6.43,0,0,0-5.63,6.22V56.45A5.59,5.59,0,0,0,428,56a5.72,5.72,0,0,0-4.48-1.41l-.73.08a5,5,0,0,0-5.61-4.56l-9.57,1A6.43,6.43,0,0,0,402,57.33V95.2c0,9.57-7.6,18.39-17,19.38l-.28,0a16.68,16.68,0,0,1-5.85-.41c-2.41-3.27-3.71-8.07-3.71-13.83V66a5.66,5.66,0,0,0-1.85-4.27,5.72,5.72,0,0,0-4.48-1.41l-.73.08a5,5,0,0,0-5.61-4.56l-9.57,1a6.43,6.43,0,0,0-5.63,6.22V91.31a35.16,35.16,0,0,0-10.31-17.87,29.58,29.58,0,0,0-6.79-4.6c-6.19-5.59-14.63-8.48-24.7-7.42A32.29,32.29,0,0,0,288,69.36a6.15,6.15,0,0,0-2.51-.26l-.59.06a5.1,5.1,0,0,0-5.74-4.55l-9.43,1a6.57,6.57,0,0,0-5.77,6.24V95.4A33.79,33.79,0,0,0,255,82.06a29.56,29.56,0,0,0-6.79-4.6C242,71.86,233.58,69,223.51,70A32.29,32.29,0,0,0,206,78a6.15,6.15,0,0,0-2.51-.26l-.59.06a5.1,5.1,0,0,0-5.75-4.55l-9.43,1A6.57,6.57,0,0,0,182,80.46v2a5.59,5.59,0,0,0-.44-.45,5.72,5.72,0,0,0-4.48-1.41l-.73.08a5,5,0,0,0-5.61-4.56l-9.43,1a6.33,6.33,0,0,0-5.77,6.1v2.53a25.64,25.64,0,0,0-20-6.49c-18.11,1.9-31.29,15.58-35.47,32.61V55.09a5.56,5.56,0,0,0-6.34-5.68l-.73.08a4.89,4.89,0,0,0-5.61-4.56L73.75,46.37a6.43,6.43,0,0,0-5.63,6.22v52.22l-36,3.79V62.24A5.66,5.66,0,0,0,30.24,58a5.72,5.72,0,0,0-4.48-1.41l-.73.08a5,5,0,0,0-5.61-4.56L5.63,53.53A6.43,6.43,0,0,0,0,59.75V168a5.09,5.09,0,0,0,5.63,5.18h.14a5.91,5.91,0,0,0,1.92,4.36A5.59,5.59,0,0,0,11.47,179a6.06,6.06,0,0,0,.63,0l13.79-1.45a7.24,7.24,0,0,0,6.2-7V137.56l36-3.79v27.06A5.09,5.09,0,0,0,73.75,166h.13a5.91,5.91,0,0,0,1.92,4.36,5.62,5.62,0,0,0,4.41,1.41l13.65-1.43a7.06,7.06,0,0,0,6.2-7V134.86A34.18,34.18,0,0,0,113,154.45a31.11,31.11,0,0,0,24.84,11.46,39.64,39.64,0,0,0,4.15-.22,31.39,31.39,0,0,0,18.49-8.86,6,6,0,0,0,.79,0v.1a5.61,5.61,0,0,0,1.84,4.24,5.91,5.91,0,0,0,4.64,1.42l9.43-1A7,7,0,0,0,182,158.8V189a5.09,5.09,0,0,0,5.76,5v.1a5.57,5.57,0,0,0,1.85,4.2,5.93,5.93,0,0,0,4,1.5,6.12,6.12,0,0,0,.65,0l9.43-1A7.24,7.24,0,0,0,210,191.9V150.09c4,4,11.27,7.28,20,6.36,16.11-1.69,28.6-12.32,33.92-27.56v51.48a5.09,5.09,0,0,0,5.76,5v.1a5.57,5.57,0,0,0,1.85,4.2,5.93,5.93,0,0,0,4,1.5,6.11,6.11,0,0,0,.65,0l9.43-1a7.24,7.24,0,0,0,6.34-6.87V141.48c4,4,11.27,7.28,20,6.36,19.6-2.06,33.84-17.34,36.35-38.07a32.28,32.28,0,0,0,12.48,18.76A31.63,31.63,0,0,0,364,132a31.21,31.21,0,0,0,24.47,7.82,29.27,29.27,0,0,0,13.29-4.92c-1.26,10.22-8.23,18.64-18.77,19.74a15,15,0,0,1-10.42-2.28,4.76,4.76,0,0,0-3.66-1,6.65,6.65,0,0,0-3.94,2.1L359,160a6.18,6.18,0,0,0-1.69,4.12,5,5,0,0,0,2.39,4.39,35.92,35.92,0,0,0,3.48,1.84,5.63,5.63,0,0,0,2.59,3.83,37.61,37.61,0,0,0,19.56,5.3,42.86,42.86,0,0,0,4.48-.24l1.69-.18c10.37-1.09,20.11-6.64,27.42-15.61,6.84-8.41,10.8-19,10.88-29v-7.78a5.07,5.07,0,0,0,4.22,1.48h.13v.1a5.61,5.61,0,0,0,5.67,5.71,6.12,6.12,0,0,0,.66,0l13.65-1.43a7.07,7.07,0,0,0,6.2-6.86V92l12.09-1.27A44.79,44.79,0,0,0,499,77.94c-.11,1.23-.17,2.46-.17,3.7,0,12.43,5.19,23.09,14.11,29.54a33.29,33.29,0,0,0,3.29,3.44c6.46,5.81,15.1,8.9,24.71,8.9a46.82,46.82,0,0,0,4.89-.26c9.22-1,19.41-5,26-10.3a7,7,0,0,0,2.62-5.25,5.43,5.43,0,0,0-1.9-4.38l-5.88-5.26a5.15,5.15,0,0,0-3.28-1.48l-3.58-3.2a4.83,4.83,0,0,0-3.94-1.28,7.49,7.49,0,0,0-3.66,1.65c-2.67,2.67-7.6,4.6-12.81,5.15a17.18,17.18,0,0,1-6.57-.48,17.89,17.89,0,0,1-2.31-4.11l37.31-3.92c1-.11,10-1.12,12.37-3.72h0c2.65-3.07,3-7.93,3-8.17C583.12,66.91,578.75,56.32,571.13,49.46Zm-484.89.75a4.32,4.32,0,0,1,1.38,1.14c1.11,1.43,1.12,3.38,1.12,5.08V87.17c-.84-21.94-6.14-31.09-9.65-34.78a13.92,13.92,0,0,0-1-1A7.41,7.41,0,0,0,75.92,50C81.31,48.95,84.43,49.23,86.23,50.21ZM25.89,57.84l.52,0a4.33,4.33,0,0,1,4.4,4.43v46.49l-5.76.61V57.93Zm-8.59-.38a5.14,5.14,0,0,1,2,1.08c1.58,1.44,1.58,3.67,1.58,5.58V94.85C20,72,14.26,63,10.76,59.63a12.32,12.32,0,0,0-1.08-.93,6.57,6.57,0,0,0-1.64-1C12.5,56.82,15.4,56.86,17.3,57.45Zm14.09,78.89-.57.06v34.08a5.92,5.92,0,0,1-5.06,5.73L12,177.66a4.38,4.38,0,0,1-3.42-1.09A4.63,4.63,0,0,1,7,173.11V173l12.38-1.3a6.57,6.57,0,0,0,5.63-6.36v-33.5l43.07-4.53v5.15Zm67.41,27a5.84,5.84,0,0,1-5.06,5.73L80.08,170.5a4.39,4.39,0,0,1-3.42-1.09,4.63,4.63,0,0,1-1.5-3.45v-.09l12.24-1.29A6.46,6.46,0,0,0,93,158.21V50.78l.84-.09a4.28,4.28,0,0,1,4.92,4.4v65c-.08,1.14-.13,2.28-.13,3.44s0,2.27.13,3.39Zm56.73-45.75c0,11.54-5.35,21.67-17,22.9a16.49,16.49,0,0,1-6.14-.43c-2.49-3.3-3.85-8.08-3.85-13.77,0-9.93,4.32-21,16.46-22.27a19.56,19.56,0,0,1,2-.11A14,14,0,0,1,152.7,105,25.56,25.56,0,0,1,155.53,117.58Zm-10.7-14.84c-10.86,1.14-17.6,10.16-17.6,23.54a25.59,25.59,0,0,0,3.1,13c-6-2.78-8.86-9.8-8.86-18.16,0-11.68,5.49-21.69,17-22.9,5.92-.62,10.21,1.35,13,5A17.44,17.44,0,0,0,144.83,102.74ZM109.22,132s6.4,21.77,34.58,21.77C143.81,153.77,110.51,162.74,109.22,132Zm32.65,32.43c-9.62,1-18.17-1.58-24.74-7.49l0,0a33.24,33.24,0,0,0,18.44,3,31,31,0,0,0,20-10.69v2.53a4.92,4.92,0,0,0,3.4,4.78A30,30,0,0,1,141.88,164.42Zm35.19-4.12-9.43,1a4.64,4.64,0,0,1-3.65-1.1,4.35,4.35,0,0,1-1.41-3.28v-.23l8.16-.86a6.43,6.43,0,0,0,5.63-6.22V82l.84-.09A4.44,4.44,0,0,1,180.69,83a4.28,4.28,0,0,1,1.3,2.25v70.6A5.79,5.79,0,0,1,177.06,160.3Zm42.06-82.52c1.55-.26,3-.42,4.43-.52,24.47-1.67,27.2,19.51,27.2,19.51-8.68-13.5-23.53-17.2-30.34-18.2-.91-.13-1.66-.22-2.25-.27-.86-.08-1.35-.1-1.35-.1C217.6,78,218.36,77.91,219.12,77.78ZM203,112.6c0-11.54,5.21-21.66,16.89-22.89,5.89-.62,10.17,1.37,13,5a17.3,17.3,0,0,0-6.64-.49c-10.77,1.13-17.46,10.15-17.46,23.53,0,5.3,1,9.74,3,13.1C205.71,128.1,203,121.09,203,112.6ZM236.88,109c0,11.68-5.35,21.67-17,22.9a16.82,16.82,0,0,1-6.13-.39c-2.41-3.27-3.72-8.06-3.72-13.82,0-12.86,6.1-21.18,16.32-22.25a19.32,19.32,0,0,1,2-.11A13.9,13.9,0,0,1,234,96.49,25.44,25.44,0,0,1,236.88,109ZM203.66,79l.52,0a4.85,4.85,0,0,1,.69.06c-.67.63-1.3,1.26-1.9,1.91V79.06Zm5.06,112.91a5.92,5.92,0,0,1-5.2,5.6l-9.43,1a4.72,4.72,0,0,1-3.63-1.14A4.31,4.31,0,0,1,189,194.1v-.24l8.16-.86a6.57,6.57,0,0,0,5.77-6.24V143.28a18.5,18.5,0,0,0,5.76,4.65Zm21.12-36.72c-8.56.9-15.66-2.44-19.29-6.37a25.88,25.88,0,0,0,13,1.88c22-2.31,36.17-21.4,36.17-44.06,0-10.28-3-19.27-8.27-25.79A28.64,28.64,0,0,1,254.14,83a33.68,33.68,0,0,1,9.76,16.58v24.85C259.63,141.35,246.81,153.39,229.84,155.18Zm76.37-88.12a36.59,36.59,0,0,1,6.8,0c18.74,2,21,19.43,21,19.43-8-12.38-21.1-16.52-28.48-17.89-.93-.17-1.77-.3-2.49-.4-1.85-.25-3-.28-3-.28A50.17,50.17,0,0,1,306.22,67.06ZM284.87,104c0-11.54,5.21-21.66,16.89-22.89,5.89-.62,10.17,1.37,13,5a17.26,17.26,0,0,0-6.64-.49c-10.77,1.13-17.46,10.15-17.46,23.53,0,5.3,1,9.74,3,13.1C287.63,119.49,284.87,112.48,284.87,104Zm33.92-3.57c0,11.68-5.35,21.67-17,22.9a16.82,16.82,0,0,1-6.13-.39c-2.41-3.27-3.71-8.06-3.71-13.82,0-12.86,6.1-21.18,16.32-22.25a19.35,19.35,0,0,1,2-.11,13.89,13.89,0,0,1,5.68,1.13A25.44,25.44,0,0,1,318.79,100.42Zm-33.22-30,.52,0a4.84,4.84,0,0,1,.69.06c-.67.63-1.3,1.26-1.9,1.91V70.45Zm5.06,112.91a5.92,5.92,0,0,1-5.2,5.6l-9.43,1a4.71,4.71,0,0,1-3.63-1.14,4.31,4.31,0,0,1-1.43-3.25v-.23l8.16-.86a6.57,6.57,0,0,0,5.77-6.24V134.67a18.5,18.5,0,0,0,5.76,4.65Zm21.12-36.72c-8.56.89-15.66-2.44-19.29-6.37a25.88,25.88,0,0,0,13,1.88c22-2.31,36.17-21.4,36.17-44.06,0-10.27-3-19.26-8.27-25.79a28.61,28.61,0,0,1,2.73,2.16c6.56,5.9,10.45,14.77,11.17,25.21v1.63c0,.94,0,1.86.11,2.77C347,126.94,332.46,144.39,311.76,146.57Zm79.3,13.56A54.15,54.15,0,0,0,404.79,151a44.64,44.64,0,0,0,11.83-17.73s1.28,35.86-42.27,32A60.91,60.91,0,0,0,391.06,160.13ZM368.89,61.62a4.45,4.45,0,0,1,3.49,1.08A4.39,4.39,0,0,1,373.82,66v34.34c0,5.32,1,9.76,3,13.12-6-2.72-8.77-9.77-8.77-18.25V61.71Zm19.43,76.9a30,30,0,0,1-23.48-7.5h0A30.93,30.93,0,0,0,382,134c8.59-.9,15.2-5.68,20-10.83v8.3c0,.57,0,1.14-.07,1.7A28.3,28.3,0,0,1,388.32,138.52Zm40.24-4.08c-.17,23.59-19.34,41.44-37.15,43.31l-1.69.18A36.61,36.61,0,0,1,366.49,173a4.32,4.32,0,0,1-1.77-2.09,38.34,38.34,0,0,0,18.67,2.48l1.69-.18c21.82-2.29,37.58-24.08,37.72-43.94V56l.84-.09A4.44,4.44,0,0,1,427.14,57a4.28,4.28,0,0,1,1.3,2.24V123.1a5.4,5.4,0,0,0,.13,1.18ZM472.85,9.58a26.49,26.49,0,0,1,4.82,1.12c13.39,4.51,15.16,18.19,15.16,18.19-7.16-11.14-18.52-15.6-26.1-17.39-1.66-.39-3.14-.65-4.36-.83a34.24,34.24,0,0,0-3.48-.35A40.85,40.85,0,0,1,472.85,9.58ZM453.35,29,466,27.66a15.49,15.49,0,0,1,13.68,5.29,17.12,17.12,0,0,0-7.35-.8l-13.24,1.39V63.15l-5.76.61Zm30,14.16A19.72,19.72,0,0,1,466,62.43l-5.63.59V34.69l12.09-1.27a15.43,15.43,0,0,1,8.64,1.52A16,16,0,0,1,483.33,43.15Zm-11,46.28-13.24,1.39v34.78a5.76,5.76,0,0,1-5.06,5.59l-13.65,1.43a4.35,4.35,0,0,1-4.92-4.4V128l12.24-1.29a6.43,6.43,0,0,0,5.63-6.22V86.28L466,84.95c22-2.31,39.83-22.2,39.83-44.16a36,36,0,0,0-8.3-23.42,34.25,34.25,0,0,1,2.67,2.17A34.93,34.93,0,0,1,511.6,45.91a40.5,40.5,0,0,1-.34,5.11A46.21,46.21,0,0,0,499.22,75.9,43.7,43.7,0,0,1,472.35,89.43Zm73.29-48.08a28.12,28.12,0,0,1,7.59,1.36c13.41,4.5,15.18,18.2,15.18,18.2-7.51-11.68-19.63-16-27.18-17.63-1.14-.24-2.18-.43-3.08-.56a34.35,34.35,0,0,0-3.68-.38A44.05,44.05,0,0,1,545.63,41.35Zm-4.77,67.59s-33.3,9-34.58-21.77C506.28,87.17,512.69,108.94,540.86,108.94Zm-2.79-53.39c5.54-.58,9.38,1.39,11.76,4.79a15.79,15.79,0,0,0-5.43-.31A16.77,16.77,0,0,0,531,69l-8.16.86C525,62.42,529.49,56.46,538.08,55.56Zm14.36,11.16L532.6,68.8a15.26,15.26,0,0,1,11.94-7.48,17.46,17.46,0,0,1,1.83-.1,12.45,12.45,0,0,1,4.46.77A18.29,18.29,0,0,1,552.43,66.71Zm19.24,37.6a4.25,4.25,0,0,1,1.44,3.4A5.71,5.71,0,0,1,571,112c-6.27,5.06-16.43,9.08-25.28,10-11.09,1.16-21.17-1.73-28.42-8.14a39.13,39.13,0,0,0,22.08,3.66c8.73-.92,19-4.81,25.62-10.15a6.32,6.32,0,0,0,2.39-4.76,5.5,5.5,0,0,0-.71-2.77Zm7.51-18.48c-1.72,1.89-8.92,3-11.55,3.3l-39,4.1L529,94a21.13,21.13,0,0,0,1.76,3.67c-3.68-1.75-6.09-5-7.56-9l38.14-4s9.71-1,12-3.51c2.53-2.94,2.81-7.76,2.81-7.76,0-9.83-3.11-18.61-8.5-25.13a31.48,31.48,0,0,1,2.69,2.16c7.35,6.62,11.57,16.86,11.57,28.05C581.83,78.51,581.54,83.1,579.18,85.83Z"/><path class="cls-1" d="M634,34.45a5.65,5.65,0,0,0-4.43-1.38l-.74.08a5,5,0,0,0-5.6-4.56l-4.92.52V10.2a5.65,5.65,0,0,0-1.76-4.34A5.81,5.81,0,0,0,612,4.52l-.73.08C611,1.39,608.59-.27,605.64,0l-9.57,1a6.43,6.43,0,0,0-5.63,6.22V32l-11.54,1.21a6.57,6.57,0,0,0-5.63,6.36v7.32a5,5,0,0,0,5.63,5H579v.1a5.63,5.63,0,0,0,6.34,5.67l5.07-.53v48.88a4.92,4.92,0,0,0,5.63,5h.13v.1A5.69,5.69,0,0,0,598,115.5a5.61,5.61,0,0,0,3.8,1.41,6.58,6.58,0,0,0,.7,0l9.57-1a7.07,7.07,0,0,0,6.2-6.86V54.27l11.39-1.2a7.07,7.07,0,0,0,6.2-6.86V38.89A6,6,0,0,0,634,34.45ZM612.11,5.79a4.56,4.56,0,0,1,3.59,1A4.4,4.4,0,0,1,617,10.2v19l-5.76.61v-24ZM607.43,5a4.26,4.26,0,0,1,.77,1.21,10.53,10.53,0,0,1,.55,4.11V27c-.6-11.46-3.48-17.23-6.35-20.14a11.45,11.45,0,0,0-1.2-1.06,8,8,0,0,0-5.26-1.86C602.75,2.55,605.94,3.36,607.43,5Zm-22.2,51.46a4.44,4.44,0,0,1-3.49-1.08,4.39,4.39,0,0,1-1.43-3.32v-.23l10.13-1.06v5.15Zm49.39-10.24a5.76,5.76,0,0,1-5.06,5.59L617,53.11V109a5.76,5.76,0,0,1-5.06,5.59l-9.57,1a4.47,4.47,0,0,1-3.51-1,4.43,4.43,0,0,1-1.41-3.35V111l8.16-.86a6.43,6.43,0,0,0,5.63-6.22V48.57l12-1.26a6.43,6.43,0,0,0,5.63-6.22V34.44l.84-.09a4.39,4.39,0,0,1,3.44,1.06,4.67,4.67,0,0,1,1.48,3.49Z"/></g></g></svg>