<svg xmlns="http://www.w3.org/2000/svg" xmlns:xlink="http://www.w3.org/1999/xlink" viewBox="0 0 457.18 143.64"><defs><style>.cls-1{fill:url(#Dégradé_sans_nom_6);}.cls-2{fill:url(#Dégradé_sans_nom_6-2);}</style><linearGradient id="Dégradé_sans_nom_6" x1="-123.39" y1="246.43" x2="589.19" y2="-155.29" gradientUnits="userSpaceOnUse"><stop offset="0.07" stop-color="#00a7e2"/><stop offset="1" stop-color="#81d5b7"/></linearGradient><linearGradient id="Dégradé_sans_nom_6-2" x1="-76.33" y1="329.92" x2="636.25" y2="-71.81" xlink:href="#Dégradé_sans_nom_6"/></defs><title>Fichier 27</title><g id="Calque_2" data-name="Calque 2"><g id="Calque_1-2" data-name="Calque 1"><path class="cls-1" d="M410.6,35.56a22.71,22.71,0,0,0-5-3.41,23.3,23.3,0,0,0-18.36-5.61,31.44,31.44,0,0,0-18.64,9.07c.08-.86.12-1.73.12-2.6a26,26,0,0,0-8.5-19.65A25.38,25.38,0,0,0,355,9.7,26,26,0,0,0,335,3.7l-23,2.41a4.62,4.62,0,0,0-4,4.47v30a4,4,0,0,0-.32-.32,4.11,4.11,0,0,0-3.22-1l-.52.06a3.58,3.58,0,0,0-4-3.28l-6.88.72a4.62,4.62,0,0,0-4,4.47V68.44c0,6.88-5.46,13.22-12.24,13.94l-.2,0a12,12,0,0,1-4.21-.29c-1.73-2.35-2.67-5.8-2.67-9.95V47.47a4.07,4.07,0,0,0-1.33-3.07,4.11,4.11,0,0,0-3.22-1l-.53.06a3.58,3.58,0,0,0-4-3.28l-6.88.72a4.62,4.62,0,0,0-4,4.47V65.65a25.27,25.27,0,0,0-7.41-12.85,21.26,21.26,0,0,0-4.88-3.31c-4.45-4-10.51-6.09-17.76-5.33A23.22,23.22,0,0,0,207,49.87a4.42,4.42,0,0,0-1.81-.18l-.42,0a3.67,3.67,0,0,0-4.13-3.27l-6.78.71a4.72,4.72,0,0,0-4.15,4.48V68.59a24.29,24.29,0,0,0-6.4-9.59,21.25,21.25,0,0,0-4.89-3.31c-4.45-4-10.51-6.09-17.75-5.33a23.22,23.22,0,0,0-12.56,5.7,4.42,4.42,0,0,0-1.81-.18l-.42,0a3.67,3.67,0,0,0-4.13-3.27l-6.78.71a4.72,4.72,0,0,0-4.15,4.48v1.46a4,4,0,0,0-.32-.32,4.11,4.11,0,0,0-3.22-1l-.52.06a3.58,3.58,0,0,0-4-3.28l-6.78.71a4.55,4.55,0,0,0-4.15,4.38v1.82A18.44,18.44,0,0,0,97.45,57c-13,1.37-22.5,11.2-25.5,23.44V39.61a4,4,0,0,0-4.56-4.08l-.52.05a3.52,3.52,0,0,0-4-3.28l-9.82,1a4.62,4.62,0,0,0-4,4.47V75.35l-25.9,2.72V44.75a4.07,4.07,0,0,0-1.33-3.07,4.11,4.11,0,0,0-3.22-1l-.53.06a3.58,3.58,0,0,0-4-3.28L4,38.48A4.62,4.62,0,0,0,0,43v77.82a3.66,3.66,0,0,0,4,3.72h.1a4.25,4.25,0,0,0,1.38,3.14,4,4,0,0,0,2.72,1l.45,0,9.92-1a5.21,5.21,0,0,0,4.46-5V98.9L49,96.17v19.45a3.66,3.66,0,0,0,4,3.72h.1a4.25,4.25,0,0,0,1.38,3.14,4,4,0,0,0,3.17,1l9.82-1a5.08,5.08,0,0,0,4.46-5V97A24.57,24.57,0,0,0,81.26,111a22.37,22.37,0,0,0,17.86,8.24,28.5,28.5,0,0,0,3-.16,22.57,22.57,0,0,0,13.29-6.37,4.32,4.32,0,0,0,.57,0v.07a4,4,0,0,0,1.32,3,4.25,4.25,0,0,0,3.34,1l6.78-.71a5,5,0,0,0,3.44-2v21.69a3.66,3.66,0,0,0,4.14,3.61v.07a4,4,0,0,0,1.33,3,4.27,4.27,0,0,0,2.86,1.08l.47,0,6.78-.71A5.21,5.21,0,0,0,151,138V107.9a17.86,17.86,0,0,0,14.36,4.58c11.58-1.22,20.56-8.86,24.39-19.81v37a3.66,3.66,0,0,0,4.14,3.61v.07a4,4,0,0,0,1.33,3,4.27,4.27,0,0,0,2.86,1.08l.47,0,6.78-.71a5.21,5.21,0,0,0,4.56-4.94V101.71a17.85,17.85,0,0,0,14.36,4.58c14.09-1.48,24.33-12.46,26.13-27.37a23.21,23.21,0,0,0,9,13.48,22.74,22.74,0,0,0,2.35,2.47,22.44,22.44,0,0,0,17.59,5.62A21,21,0,0,0,288.83,97c-.91,7.34-5.92,13.4-13.5,14.2a10.78,10.78,0,0,1-7.49-1.64,3.42,3.42,0,0,0-2.63-.74,4.78,4.78,0,0,0-2.83,1.51l-4.25,4.7a4.45,4.45,0,0,0-1.21,3,3.62,3.62,0,0,0,1.72,3.16,25.82,25.82,0,0,0,2.5,1.32,4,4,0,0,0,1.86,2.76A27,27,0,0,0,277.07,129a30.82,30.82,0,0,0,3.22-.17l1.22-.13c7.46-.78,14.46-4.77,19.71-11.23A34.17,34.17,0,0,0,309,96.66v-5.6a3.64,3.64,0,0,0,3,1.06h.1v.07a4,4,0,0,0,4.08,4.1l.48,0,9.81-1A5.08,5.08,0,0,0,331,90.3V66.13l8.7-.91A32.2,32.2,0,0,0,358.74,56c-.08.88-.13,1.77-.13,2.66,0,8.94,3.73,16.6,10.14,21.24a23.93,23.93,0,0,0,2.36,2.47,26.14,26.14,0,0,0,17.77,6.4,33.66,33.66,0,0,0,3.52-.19,38,38,0,0,0,18.66-7.4A5,5,0,0,0,413,77.44a3.91,3.91,0,0,0-1.37-3.15l-4.23-3.78A3.7,3.7,0,0,0,405,69.45l-2.57-2.3a3.47,3.47,0,0,0-2.83-.92A5.39,5.39,0,0,0,397,67.41c-1.92,1.92-5.47,3.31-9.21,3.7a12.35,12.35,0,0,1-4.73-.34,12.86,12.86,0,0,1-1.66-3L408.19,65c.73-.08,7.21-.81,8.89-2.67h0a11.13,11.13,0,0,0,2.13-5.88C419.23,48.1,416.08,40.49,410.6,35.56ZM62,36.1a3.11,3.11,0,0,1,1,.82,5.81,5.81,0,0,1,.8,3.65v22.1c-.61-15.77-4.41-22.35-6.94-25a10,10,0,0,0-.74-.7,5.33,5.33,0,0,0-1.54-1C58.46,35.19,60.7,35.4,62,36.1ZM18.62,41.58l.38,0a3.11,3.11,0,0,1,3.16,3.18V78.17L18,78.61v-37Zm-6.18-.28a3.69,3.69,0,0,1,1.42.78c1.13,1,1.13,2.64,1.13,4v22.1c-.63-16.44-4.74-22.89-7.25-25.32A8.86,8.86,0,0,0,7,42.2a4.73,4.73,0,0,0-1.18-.71C9,40.85,11.07,40.88,12.44,41.3ZM22.57,98l-.41,0v24.5a4.25,4.25,0,0,1-3.63,4.12l-9.92,1a3.15,3.15,0,0,1-2.46-.78,3.33,3.33,0,0,1-1.08-2.48v-.07l8.9-.94a4.72,4.72,0,0,0,4-4.57V94.8l31-3.25v3.7ZM71,117.43a4.2,4.2,0,0,1-3.64,4.12l-9.82,1a3.15,3.15,0,0,1-2.46-.78A3.33,3.33,0,0,1,54,119.31v-.07l8.8-.92a4.64,4.64,0,0,0,4-4.57V36.51l.6-.06A3.07,3.07,0,0,1,71,39.61V86.36c-.06.82-.09,1.64-.09,2.47s0,1.63.09,2.44Zm40.79-32.89c0,8.3-3.85,15.58-12.24,16.47a11.86,11.86,0,0,1-4.41-.31c-1.79-2.37-2.77-5.81-2.77-9.9,0-7.14,3.11-15.09,11.83-16a14.07,14.07,0,0,1,1.47-.08,10,10,0,0,1,4.09.81A18.38,18.38,0,0,1,111.81,84.53Zm-7.69-10.67c-7.81.82-12.66,7.31-12.66,16.93a18.4,18.4,0,0,0,2.23,9.37c-4.3-2-6.37-7-6.37-13.05,0-8.4,3.95-15.59,12.24-16.47,4.26-.45,7.34,1,9.35,3.57A12.53,12.53,0,0,0,104.13,73.87Zm-25.6,21s4.6,15.65,24.86,15.65C103.39,110.55,79.45,117,78.53,94.9ZM102,118.21c-6.91.72-13.07-1.14-17.79-5.39l0,0A23.89,23.89,0,0,0,97.45,115a22.31,22.31,0,0,0,14.37-7.68v1.82a3.54,3.54,0,0,0,2.44,3.44A21.59,21.59,0,0,1,102,118.21Zm25.3-3-6.78.71a3.33,3.33,0,0,1-2.62-.79,3.13,3.13,0,0,1-1-2.36v-.17l5.87-.62a4.62,4.62,0,0,0,4-4.47V59l.6-.06a3.19,3.19,0,0,1,2.51.78,3.08,3.08,0,0,1,.94,1.62V112A4.16,4.16,0,0,1,127.3,115.25Zm30.24-59.33c1.12-.18,2.18-.3,3.19-.37,17.59-1.2,19.56,14,19.56,14-6.24-9.71-16.92-12.37-21.81-13.09-.65-.1-1.2-.16-1.62-.2-.62-.06-1-.07-1-.07C156.44,56.11,157,56,157.53,55.92Zm-11.62,25c0-8.3,3.74-15.57,12.14-16.46,4.24-.45,7.31,1,9.32,3.57a12.44,12.44,0,0,0-4.77-.35c-7.74.81-12.55,7.29-12.55,16.91a18.68,18.68,0,0,0,2.14,9.42C147.9,92.09,145.92,87.06,145.92,80.95Zm24.39-2.56c0,8.4-3.85,15.58-12.24,16.47a12.09,12.09,0,0,1-4.41-.28c-1.73-2.35-2.67-5.8-2.67-9.94,0-9.25,4.38-15.23,11.73-16a13.89,13.89,0,0,1,1.45-.08,10,10,0,0,1,4.08.81A18.29,18.29,0,0,1,170.3,78.39Zm-23.88-21.6.37,0a3.48,3.48,0,0,1,.49,0c-.48.45-.94.91-1.37,1.37V56.84ZM150.06,138a4.26,4.26,0,0,1-3.74,4l-6.78.71a3.39,3.39,0,0,1-2.61-.82,3.1,3.1,0,0,1-1-2.33v-.17l5.86-.62a4.72,4.72,0,0,0,4.15-4.48V103a13.3,13.3,0,0,0,4.14,3.34Zm15.19-26.4c-6.16.65-11.26-1.75-13.87-4.58a18.61,18.61,0,0,0,9.31,1.35c15.79-1.66,26-15.38,26-31.67,0-7.39-2.13-13.85-5.95-18.54a20.59,20.59,0,0,1,2,1.56,24.21,24.21,0,0,1,7,11.92V89.46C186.66,101.62,177.44,110.28,165.24,111.56Zm54.91-63.35a26.31,26.31,0,0,1,4.89,0c13.47,1.41,15.09,14,15.09,14-5.72-8.9-15.17-11.87-20.48-12.86-.67-.12-1.27-.22-1.79-.29-1.33-.18-2.13-.2-2.13-.2A36.07,36.07,0,0,1,220.15,48.21ZM204.81,74.76c0-8.3,3.74-15.57,12.14-16.46,4.24-.45,7.31,1,9.32,3.57a12.41,12.41,0,0,0-4.77-.35c-7.74.81-12.55,7.29-12.55,16.91a18.68,18.68,0,0,0,2.14,9.42C206.79,85.9,204.81,80.86,204.81,74.76Zm24.39-2.56c0,8.4-3.84,15.58-12.24,16.47a12.09,12.09,0,0,1-4.41-.28c-1.73-2.35-2.67-5.8-2.67-9.94,0-9.25,4.39-15.23,11.73-16a13.91,13.91,0,0,1,1.46-.08,10,10,0,0,1,4.08.81A18.29,18.29,0,0,1,229.19,72.2ZM205.31,50.6l.37,0a3.48,3.48,0,0,1,.49,0c-.48.45-.94.91-1.37,1.37V50.65Zm3.64,81.18a4.26,4.26,0,0,1-3.74,4l-6.78.71a3.38,3.38,0,0,1-2.61-.82,3.1,3.1,0,0,1-1-2.33v-.17l5.87-.62a4.72,4.72,0,0,0,4.15-4.48V96.82a13.3,13.3,0,0,0,4.14,3.34Zm15.18-26.4c-6.16.64-11.26-1.75-13.87-4.58a18.61,18.61,0,0,0,9.31,1.35c15.79-1.66,26-15.38,26-31.67,0-7.39-2.13-13.85-5.95-18.54a20.57,20.57,0,0,1,2,1.56c4.71,4.24,7.52,10.62,8,18.12v1.17c0,.67,0,1.34.08,2C249.46,91.27,239,103.81,224.13,105.37Zm57,9.75a38.93,38.93,0,0,0,9.88-6.56,32.09,32.09,0,0,0,8.51-12.75s.92,25.78-30.39,23A43.79,43.79,0,0,0,281.15,115.12ZM265.21,44.3a3.2,3.2,0,0,1,2.51.78,3.16,3.16,0,0,1,1,2.38V72.16a18.66,18.66,0,0,0,2.16,9.44c-4.34-2-6.31-7-6.31-13.12V44.37Zm14,55.29a21.55,21.55,0,0,1-16.88-5.39h0a22.23,22.23,0,0,0,12.33,2.18c6.17-.65,10.93-4.08,14.37-7.78v6c0,.41,0,.82,0,1.22A20.35,20.35,0,0,1,279.18,99.59Zm28.93-2.93c-.12,17-13.91,29.79-26.71,31.14l-1.22.13a26.32,26.32,0,0,1-16.71-3.51,3.1,3.1,0,0,1-1.27-1.5,27.56,27.56,0,0,0,13.42,1.78l1.21-.13c15.68-1.65,27-17.31,27.12-31.59V40.23l.6-.06a3.19,3.19,0,0,1,2.51.78,3.08,3.08,0,0,1,.93,1.61V88.5a3.88,3.88,0,0,0,.09.85ZM340,6.89a19,19,0,0,1,3.47.8c9.63,3.24,10.9,13.08,10.9,13.08-5.15-8-13.32-11.22-18.77-12.5-1.2-.28-2.26-.47-3.13-.6a24.62,24.62,0,0,0-2.51-.25A29.37,29.37,0,0,1,340,6.89Zm-14,14,9.11-1a11.14,11.14,0,0,1,9.84,3.8,12.31,12.31,0,0,0-5.28-.58l-9.52,1V45.4l-4.14.44ZM347.48,31A14.18,14.18,0,0,1,335,44.88l-4,.43V24.94l8.7-.91a11.1,11.1,0,0,1,6.21,1.09A11.48,11.48,0,0,1,347.48,31ZM339.59,64.3l-9.52,1v25a4.14,4.14,0,0,1-3.64,4l-9.81,1a3.13,3.13,0,0,1-3.54-3.16V92l8.8-.92a4.62,4.62,0,0,0,4-4.47V62l9.11-1c15.78-1.66,28.64-16,28.64-31.75a25.91,25.91,0,0,0-6-16.84A24.62,24.62,0,0,1,359.62,14a25.11,25.11,0,0,1,8.19,19,29.12,29.12,0,0,1-.24,3.67,33.22,33.22,0,0,0-8.66,17.89A31.42,31.42,0,0,1,339.59,64.3Zm52.69-34.57a20.21,20.21,0,0,1,5.46,1c9.64,3.24,10.91,13.08,10.91,13.08-5.4-8.4-14.12-11.52-19.54-12.68-.82-.18-1.57-.31-2.22-.4a24.7,24.7,0,0,0-2.65-.27A31.67,31.67,0,0,1,392.28,29.73Zm-3.43,48.6S364.91,84.77,364,62.67C364,62.67,368.59,78.32,388.85,78.32Zm-2-38.38c4-.42,6.74,1,8.46,3.45a11.35,11.35,0,0,0-3.9-.22,12.05,12.05,0,0,0-9.62,6.41l-5.87.62C377.43,44.88,380.67,40.59,386.84,39.94Zm10.32,8-14.26,1.5a11,11,0,0,1,8.59-5.38,12.55,12.55,0,0,1,1.32-.07,9,9,0,0,1,3.2.56A13.15,13.15,0,0,1,397.17,48ZM411,75a3.06,3.06,0,0,1,1,2.44,4.11,4.11,0,0,1-1.55,3.06,37.62,37.62,0,0,1-18.18,7.2c-8,.83-15.22-1.24-20.43-5.85a28.13,28.13,0,0,0,15.88,2.63c6.27-.66,13.66-3.46,18.42-7.3a4.55,4.55,0,0,0,1.72-3.42,4,4,0,0,0-.51-2Zm5.4-13.29c-1.24,1.36-6.41,2.17-8.3,2.37l-28,2.94.2.56a15.19,15.19,0,0,0,1.26,2.64,11,11,0,0,1-5.43-6.48l27.42-2.88s7-.73,8.6-2.52a10.78,10.78,0,0,0,2-5.58,28.12,28.12,0,0,0-6.11-18.06A22.63,22.63,0,0,1,410,36.24c5.29,4.76,8.32,12.12,8.32,20.17A10.38,10.38,0,0,1,416.4,61.71Z"/><path class="cls-2" d="M455.81,24.77a4.06,4.06,0,0,0-3.19-1l-.53.06a3.58,3.58,0,0,0-4-3.28l-3.54.37V7.33a4.06,4.06,0,0,0-1.27-3.12,4.18,4.18,0,0,0-3.29-1l-.52.05a3.41,3.41,0,0,0-4-3.28l-6.88.72a4.62,4.62,0,0,0-4,4.47V23l-8.3.87a4.72,4.72,0,0,0-4,4.57v5.26a3.59,3.59,0,0,0,4,3.62h.1v.07a4,4,0,0,0,4.56,4.08l3.65-.38V76.26a3.53,3.53,0,0,0,4,3.62h.1v.07A4.09,4.09,0,0,0,430,83a4,4,0,0,0,2.73,1l.5,0,6.88-.72a5.08,5.08,0,0,0,4.46-4.93V39l8.19-.86a5.08,5.08,0,0,0,4.46-4.93V28A4.28,4.28,0,0,0,455.81,24.77ZM440.07,4.17a3.28,3.28,0,0,1,2.58.73,3.17,3.17,0,0,1,1,2.44V21l-4.14.44V4.23Zm-3.36-.57a3.06,3.06,0,0,1,.55.87,7.57,7.57,0,0,1,.39,3v12c-.43-8.24-2.5-12.39-4.56-14.48a8.23,8.23,0,0,0-.86-.76,5.74,5.74,0,0,0-3.78-1.34C433.34,1.84,435.63,2.42,436.71,3.59Zm-16,37a3.19,3.19,0,0,1-2.51-.78,3.15,3.15,0,0,1-1-2.38v-.17l7.28-.77v3.7Zm35.51-7.36a4.14,4.14,0,0,1-3.64,4l-9,.95V78.37a4.14,4.14,0,0,1-3.64,4l-6.88.72a3.22,3.22,0,0,1-2.52-.75,3.18,3.18,0,0,1-1-2.41v-.17l5.86-.62a4.62,4.62,0,0,0,4-4.47V34.92l8.6-.9a4.62,4.62,0,0,0,4-4.47V24.76l.6-.06a3.15,3.15,0,0,1,2.47.76A3.36,3.36,0,0,1,456.26,28Z"/></g></g></svg>